<?xml version="1.0" encoding="utf-8"?>
<!-- Generator: Adobe Illustrator 19.2.1, SVG Export Plug-In . SVG Version: 6.00 Build 0)  -->
<svg version="1.1" id="Layer_1" xmlns="http://www.w3.org/2000/svg" xmlns:xlink="http://www.w3.org/1999/xlink" x="0px" y="0px"
	 viewBox="0 0 70 70" style="enable-background:new 0 0 70 70;" xml:space="preserve">
<style type="text/css">
	.st0{fill:#EF3B39;}
	.st1{fill:#FFFFFF;}
	.st2{fill-rule:evenodd;clip-rule:evenodd;fill:#FFFFFF;}
</style>
<rect class="st0" width="70" height="70"/>
<path class="st1" d="M29.1,28.1c-0.1,0.1-0.3,0.2-0.7,0.2h-1.2c-0.4,0-0.6-0.1-0.7-0.2c-0.1-0.1-0.2-0.3-0.2-0.7v-2.3h-2.7v2.7
	c0,1.7,0.9,2.6,2.8,2.6h2.9c1.9,0,2.8-0.9,2.8-2.6v-5.3c0-1.7-0.9-2.6-2.7-2.6h-2.2c-0.4,0-0.6-0.1-0.7-0.2
	c-0.1-0.1-0.2-0.3-0.2-0.7v-4.1c0-0.4,0.1-0.6,0.2-0.7c0.1-0.1,0.4-0.2,0.7-0.2h1.2c0.4,0,0.6,0.1,0.7,0.2c0.1,0.1,0.2,0.3,0.2,0.7
	v2.3h2.7v-2.7c0-1.7-0.9-2.6-2.8-2.6h-2.9c-1.8,0-2.8,0.9-2.8,2.6v4.9c0,1.8,0.9,2.6,2.7,2.6h2.2c0.4,0,0.6,0.1,0.7,0.2
	c0.1,0.1,0.2,0.3,0.2,0.7v4.5C29.2,27.8,29.2,28,29.1,28.1z"/>
<path class="st1" d="M43.1,14.2l1.7,9.8h-3.2L43.1,14.2z M48.6,30.5L45,11.9h-3.9l-3.3,18.6h2.7l0.7-4.3h3.9l0.7,4.3H48.6z"/>
<path class="st1" d="M32.1,36.8c0-1.7-0.9-2.6-2.8-2.6h-3.2c-1.8,0-2.8,0.9-2.8,2.6v13.4c0,1.8,0.9,2.6,2.8,2.6h3.2
	c1.8,0,2.8-0.9,2.8-2.6v-7h-4.2v2.1h1.5v4.5c0,0.4-0.1,0.6-0.2,0.7c-0.1,0.1-0.4,0.2-0.7,0.2H27c-0.4,0-0.6-0.1-0.7-0.2
	c-0.1-0.1-0.2-0.3-0.2-0.7V37.1c0-0.4,0.1-0.6,0.2-0.7c0.1-0.1,0.4-0.2,0.7-0.2h1.5c0.4,0,0.6,0.1,0.7,0.2c0.1,0.1,0.2,0.3,0.2,0.7
	v2.5h2.7V36.8z"/>
<path class="st1" d="M42,44.2h4.3v-2.2H42v-5.7h5.2v-2.2h-7.9v18.6h8.1v-2.2H42V44.2z"/>
<path class="st2" d="M23.6,55.7h23.8v2.4H23.6V55.7z"/>
</svg>
